<?xml version="1.0" encoding="UTF-8"?>
<svg version="1.1" xmlns="http://www.w3.org/2000/svg" width="96" height="96">
<path d="M0 0 C0.74056641 0.47953125 0.74056641 0.47953125 1.49609375 0.96875 C1.87109375 3.21875 1.87109375 3.21875 1.49609375 5.96875 C-0.45700513 7.36988616 -2.46099443 8.70214467 -4.50390625 9.96875 C-4.79265625 10.649375 -5.08140625 11.33 -5.37890625 12.03125 C-7.02276867 14.86234639 -9.3883495 15.01163167 -12.35546875 16.0078125 C-18.28757278 18.66108085 -22.40218767 24.96284098 -26.54296875 29.796875 C-28.82366682 32.32290713 -31.24598768 34.6647159 -33.69140625 37.03125 C-37.50102812 40.78288676 -40.2023104 44.15632231 -42.50390625 48.96875 C-40.52390625 48.96875 -38.54390625 48.96875 -36.50390625 48.96875 C-36.00890625 51.44375 -36.00890625 51.44375 -35.50390625 53.96875 C-36.02339844 54.41605469 -36.54289062 54.86335938 -37.078125 55.32421875 C-39.23256461 57.19193073 -41.37019269 59.07741359 -43.50390625 60.96875 C-44.41140625 61.773125 -45.31890625 62.5775 -46.25390625 63.40625 C-48.67070401 66.15871412 -50.04768555 68.77185868 -51.51171875 72.1015625 C-53.29448795 75.45653761 -54.89313674 76.76516016 -58.50390625 77.96875 C-67.02531846 78.815106 -77.5033501 79.80351986 -84.76953125 74.64453125 C-89.29928537 70.26780936 -92.75848474 65.79523895 -93.25390625 59.34375 C-92.90296861 55.13980956 -91.50381911 52.58447668 -88.60546875 49.5625 C-86.08765174 47.65307744 -83.5242589 46.54201115 -80.62890625 45.28125 C-74.2377116 42.37543976 -71.55634506 38.47978818 -68.125 32.48046875 C-66.50390625 29.96875 -66.50390625 29.96875 -63.50390625 28.96875 C-62.59382813 29.0615625 -61.68375 29.154375 -60.74609375 29.25 C-53.85133342 29.69791946 -50.0777645 28.81826171 -44.87109375 24.33203125 C-35.84939033 15.85918382 -35.84939033 15.85918382 -30.50390625 4.96875 C-23.15259983 -1.99564555 -9.36696325 -3.85784446 0 0 Z " fill="#191204" transform="translate(93.50390625,9.03125)"/>
<path d="M0 0 C0.74056641 0.47953125 0.74056641 0.47953125 1.49609375 0.96875 C1.87109375 3.21875 1.87109375 3.21875 1.49609375 5.96875 C-0.45700513 7.36988616 -2.46099443 8.70214467 -4.50390625 9.96875 C-4.79265625 10.649375 -5.08140625 11.33 -5.37890625 12.03125 C-7.02276867 14.86234639 -9.3883495 15.01163167 -12.35546875 16.0078125 C-18.28757278 18.66108085 -22.40218767 24.96284098 -26.54296875 29.796875 C-28.82366682 32.32290713 -31.24598768 34.6647159 -33.69140625 37.03125 C-37.50102812 40.78288676 -40.2023104 44.15632231 -42.50390625 48.96875 C-40.52390625 48.96875 -38.54390625 48.96875 -36.50390625 48.96875 C-36.00890625 51.44375 -36.00890625 51.44375 -35.50390625 53.96875 C-36.02339844 54.41605469 -36.54289062 54.86335938 -37.078125 55.32421875 C-39.23256461 57.19193073 -41.37019269 59.07741359 -43.50390625 60.96875 C-44.41140625 61.773125 -45.31890625 62.5775 -46.25390625 63.40625 C-48.67070401 66.15871412 -50.04768555 68.77185868 -51.51171875 72.1015625 C-53.29448795 75.45653761 -54.89313674 76.76516016 -58.50390625 77.96875 C-59.98514172 78.0494122 -61.46972829 78.07636193 -62.953125 78.06640625 C-63.80068359 78.06318359 -64.64824219 78.05996094 -65.52148438 78.05664062 C-66.8430957 78.04407227 -66.8430957 78.04407227 -68.19140625 78.03125 C-69.08408203 78.02673828 -69.97675781 78.02222656 -70.89648438 78.01757812 C-73.09902612 78.00579983 -75.30143224 77.98935164 -77.50390625 77.96875 C-77.50390625 77.63875 -77.50390625 77.30875 -77.50390625 76.96875 C-76.76785156 76.95457031 -76.03179687 76.94039063 -75.2734375 76.92578125 C-69.09346841 76.65763153 -69.09346841 76.65763153 -63.62890625 74.03125 C-61.77433549 71.35848625 -60.57537473 68.97573011 -59.25390625 66.03125 C-56.93994864 61.03250825 -54.21410603 58.94744757 -49.39453125 56.41796875 C-47.30532149 55.09014268 -47.30532149 55.09014268 -46.67578125 52.61328125 C-46.35641445 49.95820651 -46.35641445 49.95820651 -47.2109375 47.4453125 C-47.50390625 44.96875 -47.50390625 44.96875 -45.703125 42.6171875 C-44.87425781 41.86695313 -44.04539063 41.11671875 -43.19140625 40.34375 C-40.55692924 37.92019658 -38.4979554 35.95982372 -36.50390625 32.96875 C-35.84390625 32.96875 -35.18390625 32.96875 -34.50390625 32.96875 C-34.16746094 32.13537109 -34.16746094 32.13537109 -33.82421875 31.28515625 C-32.1066757 28.27183367 -29.8978472 26.28836825 -27.37890625 23.90625 C-22.65462222 19.36453573 -18.86413736 14.58499873 -15.2578125 9.0859375 C-13.34943684 6.78228581 -12.4264254 6.28990595 -9.50390625 5.96875 C-9.50390625 4.64875 -9.50390625 3.32875 -9.50390625 1.96875 C-12.14390625 1.30875 -14.78390625 0.64875 -17.50390625 -0.03125 C-17.50390625 0.62875 -17.50390625 1.28875 -17.50390625 1.96875 C-19.29272361 2.97383801 -21.08505321 3.97267736 -22.87890625 4.96875 C-23.87664062 5.525625 -24.874375 6.0825 -25.90234375 6.65625 C-28.50390625 7.96875 -28.50390625 7.96875 -30.50390625 7.96875 C-30.50390625 6.97875 -30.50390625 5.98875 -30.50390625 4.96875 C-21.97978452 -1.21722171 -10.19150638 -4.19743788 0 0 Z " fill="#A8553C" transform="translate(93.50390625,9.03125)"/>
<path d="M0 0 C1.32 1.32 2.64 2.64 4 4 C1.48104761 6.68926817 -1.04050992 9.37608062 -3.5625 12.0625 C-4.26697266 12.81466797 -4.97144531 13.56683594 -5.69726562 14.34179688 C-10.0526198 18.97814164 -14.48291944 23.52154601 -19 28 C-22.27444968 31.27635109 -22.27444968 31.27635109 -25 35 C-25.05050452 37.85945818 -25.05050452 37.85945818 -24 40 C-22.68 40.33 -21.36 40.66 -20 41 C-21.47401799 44.82582196 -23.39970106 46.07282051 -26.875 48.125 C-32.42254048 51.80465474 -34.29726952 55.68464888 -36 62 C-36.99 62 -37.98 62 -39 62 C-38.67 58.37 -38.34 54.74 -38 51 C-39.32 50.34 -40.64 49.68 -42 49 C-44.85109227 46.14890773 -44.86327758 43.96495025 -45 40 C-42.33307598 36.11073581 -38.11234691 34.13232803 -34 32 C-33.34 32 -32.68 32 -32 32 C-31.67 31.01 -31.34 30.02 -31 29 C-30.12214844 28.80083984 -30.12214844 28.80083984 -29.2265625 28.59765625 C-26.02991484 27.73960872 -24.61411512 25.83013304 -22.375 23.4375 C-20.95299705 21.92337393 -19.50174847 20.43506852 -18 19 C-17.34 19 -16.68 19 -16 19 C-15.90468994 18.41573242 -15.80937988 17.83146484 -15.71118164 17.22949219 C-14.84334233 14.50889191 -13.65873412 13.31439629 -11.62109375 11.328125 C-10.94755859 10.66425781 -10.27402344 10.00039063 -9.58007812 9.31640625 C-8.87302734 8.63449219 -8.16597656 7.95257812 -7.4375 7.25 C-6.72658203 6.55261719 -6.01566406 5.85523438 -5.28320312 5.13671875 C-3.52869286 3.4175342 -1.76756648 1.70574128 0 0 Z " fill="#B23C3F" transform="translate(61,20)"/>
<path d="M0 0 C2.64 0.33 5.28 0.66 8 1 C8.495 3.475 8.495 3.475 9 6 C8.21625 6.061875 7.4325 6.12375 6.625 6.1875 C5.75875 6.455625 4.8925 6.72375 4 7 C3.75636719 7.68835938 3.51273438 8.37671875 3.26171875 9.0859375 C1.42426647 13.32971275 -1.61584056 16.14903906 -4.8125 19.4375 C-6.04969645 20.7264079 -7.28539729 22.01675321 -8.51953125 23.30859375 C-9.40898438 24.23925659 -9.40898438 24.23925659 -10.31640625 25.1887207 C-12.65649166 27.70628069 -14.81971669 30.34338481 -17 33 C-19.23684951 35.29571397 -21.4931146 37.54179253 -23.87109375 39.69140625 C-27.81639261 43.1515786 -27.81639261 43.1515786 -29.4375 47.9375 C-29.293125 48.618125 -29.14875 49.29875 -29 50 C-30.65 50 -32.3 50 -34 50 C-34.875 47.89453125 -34.875 47.89453125 -35 45 C-33.06182687 42.6348231 -31.24005532 40.72574312 -29 38.6875 C-27.78594818 37.53315298 -26.57369395 36.37691232 -25.36328125 35.21875 C-24.48470459 34.38730469 -24.48470459 34.38730469 -23.58837891 33.5390625 C-21.0927797 31.12094731 -18.87305155 28.49879341 -16.6328125 25.84765625 C-14.08120431 22.96031014 -11.29265973 20.32052217 -8.50390625 17.6640625 C-6.77649907 16.12652316 -6.77649907 16.12652316 -7 14 C-7.66 13.67 -8.32 13.34 -9 13 C-9.226875 13.556875 -9.45375 14.11375 -9.6875 14.6875 C-11.35896766 17.63246684 -13.55276352 19.68156544 -16 22 C-16.66 21.67 -17.32 21.34 -18 21 C-15.03 17.535 -15.03 17.535 -12 14 C-12.66 13.34 -13.32 12.68 -14 12 C-14 10.68 -14 9.36 -14 8 C-12.04414675 6.99515796 -10.08523763 5.99626195 -8.125 5 C-7.03445312 4.443125 -5.94390625 3.88625 -4.8203125 3.3125 C-2 2 -2 2 0 2 C0 1.34 0 0.68 0 0 Z " fill="#271C0C" transform="translate(76,9)"/>
<path d="M0 0 C0.495 2.475 0.495 2.475 1 5 C0.48050781 5.44730469 -0.03898437 5.89460938 -0.57421875 6.35546875 C-2.72865836 8.22318073 -4.86628644 10.10866359 -7 12 C-7.9075 12.804375 -8.815 13.60875 -9.75 14.4375 C-12.16679776 17.18996412 -13.5437793 19.80310868 -15.0078125 23.1328125 C-16.7905817 26.48778761 -18.38923049 27.79641016 -22 29 C-23.48123547 29.0806622 -24.96582204 29.10761193 -26.44921875 29.09765625 C-27.29677734 29.09443359 -28.14433594 29.09121094 -29.01757812 29.08789062 C-30.33918945 29.07532227 -30.33918945 29.07532227 -31.6875 29.0625 C-32.58017578 29.05798828 -33.47285156 29.05347656 -34.39257812 29.04882812 C-36.59511987 29.03704983 -38.79752599 29.02060164 -41 29 C-41 28.67 -41 28.34 -41 28 C-40.26394531 27.98582031 -39.52789062 27.97164062 -38.76953125 27.95703125 C-32.58956216 27.68888153 -32.58956216 27.68888153 -27.125 25.0625 C-25.27042924 22.38973625 -24.07146848 20.00698011 -22.75 17.0625 C-20.44553406 12.10016758 -17.76232039 9.99269843 -12.98828125 7.44921875 C-10.47590668 5.61799878 -10.01992408 3.88034116 -9 1 C-6.09879049 -0.3005422 -3.14412969 -0.08733694 0 0 Z " fill="#AF3D2C" transform="translate(57,58)"/>
<path d="M0 0 C1.32 1.32 2.64 2.64 4 4 C1.48104761 6.68926817 -1.04050992 9.37608062 -3.5625 12.0625 C-4.26697266 12.81466797 -4.97144531 13.56683594 -5.69726562 14.34179688 C-8.99977864 17.85737525 -12.3188753 21.33995774 -15.75390625 24.7265625 C-18.49562358 27.44711432 -20.98363691 30.27367299 -23.375 33.3125 C-24.37660156 34.57513672 -24.37660156 34.57513672 -25.3984375 35.86328125 C-27.02448621 37.9001411 -27.02448621 37.9001411 -28 40 C-29.9375 39.25 -29.9375 39.25 -32 38 C-32.75 35.875 -32.75 35.875 -33 34 C-32.34 34 -31.68 34 -31 34 C-30.67515625 33.18789062 -30.67515625 33.18789062 -30.34375 32.359375 C-28.53500003 29.18354656 -26.08276201 26.79271919 -23.5 24.25 C-23.00113281 23.74339844 -22.50226562 23.23679687 -21.98828125 22.71484375 C-18.25341139 19 -18.25341139 19 -16 19 C-15.90468994 18.41573242 -15.80937988 17.83146484 -15.71118164 17.22949219 C-14.84334233 14.50889191 -13.65873412 13.31439629 -11.62109375 11.328125 C-10.94755859 10.66425781 -10.27402344 10.00039063 -9.58007812 9.31640625 C-8.87302734 8.63449219 -8.16597656 7.95257812 -7.4375 7.25 C-6.72658203 6.55261719 -6.01566406 5.85523438 -5.28320312 5.13671875 C-3.52869286 3.4175342 -1.76756648 1.70574128 0 0 Z " fill="#ECE2CE" transform="translate(61,20)"/>
<path d="M0 0 C2.6875 -0.25 2.6875 -0.25 5 0 C3.59598688 3.14755883 1.92153964 5.37145493 -0.44921875 7.86328125 C-1.13306641 8.58580078 -1.81691406 9.30832031 -2.52148438 10.05273438 C-3.23626953 10.79845703 -3.95105469 11.54417969 -4.6875 12.3125 C-5.38294922 13.04662109 -6.07839844 13.78074219 -6.79492188 14.53710938 C-10.66147003 18.60582998 -14.58021337 22.61440776 -18.57177734 26.56054688 C-21.92027707 29.93537669 -23 31.11011577 -23 36 C-24.65 36 -26.3 36 -28 36 C-28.76953125 33.7890625 -28.76953125 33.7890625 -29 31 C-27.19921875 28.6484375 -27.19921875 28.6484375 -24.6875 26.375 C-22.05302299 23.95144658 -19.99404915 21.99107372 -18 19 C-17.34 19 -16.68 19 -16 19 C-15.78214844 18.4534375 -15.56429687 17.906875 -15.33984375 17.34375 C-13.56100793 14.23208383 -11.12853193 11.95562899 -8.5625 9.5 C-4.70313166 5.80149156 -4.70313166 5.80149156 -1.3203125 1.671875 C-0.88460937 1.12015625 -0.44890625 0.5684375 0 0 Z " fill="#7DA190" transform="translate(75,23)"/>
<path d="M0 0 C0.99 0.33 1.98 0.66 3 1 C1.3897123 5.09891414 -1.57813953 7.76207298 -4.6875 10.75 C-8.78420176 14.75895446 -12.70575978 18.81236357 -16.40234375 23.19921875 C-18.12330024 25.13897655 -19.97422763 26.86246562 -21.875 28.625 C-24.88081735 31.55012427 -25.89485304 33.68897446 -26 38 C-27.65 38 -29.3 38 -31 38 C-31.68139648 35.73168945 -31.68139648 35.73168945 -32 33 C-30.86352539 31.09057617 -30.86352539 31.09057617 -29.09765625 29.29296875 C-28.1387146 28.29511353 -28.1387146 28.29511353 -27.16040039 27.27709961 C-26.46809326 26.58753174 -25.77578613 25.89796387 -25.0625 25.1875 C-24.36825928 24.47408447 -23.67401855 23.76066895 -22.95874023 23.02563477 C-20.98545209 21.00379471 -18.9944984 19.00087739 -17 17 C-16.175 16.14921875 -15.35 15.2984375 -14.5 14.421875 C-10.70600857 10.53609345 -6.72153045 6.94179666 -2.56640625 3.4453125 C-0.88496233 2.06499621 -0.88496233 2.06499621 0 0 Z " fill="#0E0A04" transform="translate(67,22)"/>
<path d="M0 0 C0.56074219 0.25652344 1.12148437 0.51304688 1.69921875 0.77734375 C1.13074219 1.40640625 0.56226563 2.03546875 -0.0234375 2.68359375 C-3.7304187 6.79283501 -7.42739727 10.90655496 -11.05078125 15.08984375 C-14.23844369 18.74541994 -17.56252112 22.20671458 -21.1640625 25.4609375 C-25.11410006 28.92473499 -25.11410006 28.92473499 -26.73828125 33.71484375 C-26.59390625 34.39546875 -26.44953125 35.07609375 -26.30078125 35.77734375 C-27.95078125 35.77734375 -29.60078125 35.77734375 -31.30078125 35.77734375 C-32.17578125 33.671875 -32.17578125 33.671875 -32.30078125 30.77734375 C-30.36256241 28.41211108 -28.54085358 26.50315645 -26.30078125 24.46484375 C-25.0841329 23.30788432 -23.86927362 22.14904049 -22.65625 20.98828125 C-22.07020996 20.43366211 -21.48416992 19.87904297 -20.88037109 19.30761719 C-19.0073091 17.4930341 -17.29358476 15.58342418 -15.61328125 13.58984375 C-12.86153379 10.38405796 -10.02815724 7.27376885 -7.11328125 4.21484375 C-6.29472656 3.34730469 -5.47617188 2.47976562 -4.6328125 1.5859375 C-2.30078125 -0.22265625 -2.30078125 -0.22265625 0 0 Z " fill="#A6292E" transform="translate(73.30078125,23.22265625)"/>
<path d="M0 0 C1.65 0 3.3 0 5 0 C4.91883379 2.7596512 4.49637304 4.4889097 2.55078125 6.4921875 C0.72200477 8.02344069 -1.13210871 9.51679121 -3 11 C-6.84490082 14.39781933 -8.97191122 17.50248835 -11.0078125 22.1328125 C-12.11787819 24.22183375 -13.13933206 25.535794 -15 27 C-18.6875 27.1875 -18.6875 27.1875 -22 27 C-20.88625 26.319375 -20.88625 26.319375 -19.75 25.625 C-16.88786594 22.89296294 -16.53330434 21.92584456 -15.4375 18.3125 C-13.26274127 12.12631657 -8.83753968 9.45217232 -3.58203125 6.0078125 C-0.87665536 4.26187896 -0.87665536 4.26187896 -0.13671875 1.7421875 C-0.06904297 0.87980469 -0.06904297 0.87980469 0 0 Z " fill="#8E9871" transform="translate(53,59)"/>
<path d="M0 0 C2.6875 -0.3125 2.6875 -0.3125 5 0 C4.67462254 3.03685633 4.04763274 3.95633666 1.75 6.0625 C-1 8 -1 8 -3.5625 9.1875 C-6.7759488 11.57698757 -7.4926783 14.12306095 -8.96875 17.765625 C-10.49429028 21.07096228 -12.08764756 22.81573567 -15 25 C-17.3125 24.8125 -17.3125 24.8125 -19 24 C-18.53851562 23.60425781 -18.07703125 23.20851563 -17.6015625 22.80078125 C-15.70349026 20.66660734 -15.20241562 18.90794226 -14.375 16.1875 C-12.41156396 10.93129769 -9.81228606 9.04728778 -5.04296875 6.31640625 C-2.47026019 4.65865714 -1.52727609 2.59636936 0 0 Z " fill="#080401" transform="translate(43,60)"/>
<path d="M0 0 C0.66 0 1.32 0 2 0 C1.34 1.65 0.68 3.3 0 5 C-0.66 5 -1.32 5 -2 5 C-1.46375 5.7425 -0.9275 6.485 -0.375 7.25 C0.07875 8.1575 0.5325 9.065 1 10 C0.1875 12.3125 0.1875 12.3125 -1 14 C-5 14 -5 14 -8 12 C-8.66 12 -9.32 12 -10 12 C-10 12.66 -10 13.32 -10 14 C-10.66 14 -11.32 14 -12 14 C-12.33 14.66 -12.66 15.32 -13 16 C-13.75 13.75 -13.75 13.75 -14 11 C-11.19769733 7.14683383 -7.15420084 5.15403006 -3 3 C-2.34 3 -1.68 3 -1 3 C-0.67 2.01 -0.34 1.02 0 0 Z " fill="#AE3536" transform="translate(30,49)"/>
<path d="M0 0 C2.64 0.33 5.28 0.66 8 1 C8.33 2.65 8.66 4.3 9 6 C8.21625 6.061875 7.4325 6.12375 6.625 6.1875 C5.75875 6.455625 4.8925 6.72375 4 7 C3.67 7.825 3.34 8.65 3 9.5 C2.505 10.7375 2.505 10.7375 2 12 C-0.625 12.8125 -0.625 12.8125 -3 13 C-3 12.01 -3 11.02 -3 10 C-3.99 10.99 -4.98 11.98 -6 13 C-6.66 12.34 -7.32 11.68 -8 11 C-7.50628906 10.62488281 -7.01257813 10.24976563 -6.50390625 9.86328125 C-2.37086245 6.6715022 -2.37086245 6.6715022 -0.0625 2.125 C-0.041875 1.42375 -0.02125 0.7225 0 0 Z " fill="#140C02" transform="translate(76,9)"/>
<path d="M0 0 C0.82638376 2.89234315 1 4.88742431 1 8 C-0.27734375 9.8515625 -0.27734375 9.8515625 -1.9375 11.625 C-4.25076414 14.11506425 -4.25076414 14.11506425 -6 17 C-7.9375 16.25 -7.9375 16.25 -10 15 C-10.75 12.875 -10.75 12.875 -11 11 C-10.34 11 -9.68 11 -9 11 C-8.61714844 10.12601563 -8.61714844 10.12601563 -8.2265625 9.234375 C-6.88258913 6.78611777 -5.38189704 5.18256752 -3.375 3.25 C-2.74335937 2.63640625 -2.11171875 2.0228125 -1.4609375 1.390625 C-0.73777344 0.70226563 -0.73777344 0.70226563 0 0 Z " fill="#DECFB5" transform="translate(39,43)"/>
<path d="M0 0 C0.49371094 0.3196875 0.98742187 0.639375 1.49609375 0.96875 C1.49609375 2.61875 1.49609375 4.26875 1.49609375 5.96875 C-0.15390625 5.96875 -1.80390625 5.96875 -3.50390625 5.96875 C-3.83390625 4.64875 -4.16390625 3.32875 -4.50390625 1.96875 C-8.79390625 1.30875 -13.08390625 0.64875 -17.50390625 -0.03125 C-17.50390625 0.62875 -17.50390625 1.28875 -17.50390625 1.96875 C-19.29272361 2.97383801 -21.08505321 3.97267736 -22.87890625 4.96875 C-23.87664062 5.525625 -24.874375 6.0825 -25.90234375 6.65625 C-28.50390625 7.96875 -28.50390625 7.96875 -30.50390625 7.96875 C-30.50390625 6.97875 -30.50390625 5.98875 -30.50390625 4.96875 C-21.97978452 -1.21722171 -10.19150638 -4.19743788 0 0 Z " fill="#BD984B" transform="translate(93.50390625,9.03125)"/>
<path d="M0 0 C2.31 0.33 4.62 0.66 7 1 C7 1.33 7 1.66 7 2 C5.35 2 3.7 2 2 2 C1.95875 2.556875 1.9175 3.11375 1.875 3.6875 C0.57765674 7.1161929 -2.01213237 9.03448708 -5 11 C-6.3303125 11.3403125 -6.3303125 11.3403125 -7.6875 11.6875 C-10.19050283 12.78118993 -10.19050283 12.78118993 -10.8359375 15.234375 C-11.3126295 17.00787425 -11.74538187 18.79389166 -12.12890625 20.58984375 C-13.17715022 23.4901421 -14.41882441 24.40062126 -17 26 C-17.66 25.34 -18.32 24.68 -19 24 C-18.01 24 -17.02 24 -16 24 C-15.87625 23.34773438 -15.7525 22.69546875 -15.625 22.0234375 C-14.14433363 15.74911377 -12.41739662 12.81966091 -7.0078125 9.31640625 C-4.27370082 7.52380773 -2.23372242 5.37333008 0 3 C-1.32 2.67 -2.64 2.34 -4 2 C-2.68 2 -1.36 2 0 2 C0 1.34 0 0.68 0 0 Z " fill="#301C0B" transform="translate(41,58)"/>
<path d="M0 0 C0.66 0.33 1.32 0.66 2 1 C1.84595887 6.08335725 -1.02068432 8.35754718 -4.50390625 11.64453125 C-4.99761719 12.09183594 -5.49132813 12.53914063 -6 13 C-7.32 12.34 -8.64 11.68 -10 11 C-6.375 5.125 -6.375 5.125 -3 4 C-3 3.34 -3 2.68 -3 2 C-2.01 1.34 -1.02 0.68 0 0 Z " fill="#EBDFCA" transform="translate(48,35)"/>
<path d="M0 0 C1.13089582 3.39268745 0.86432909 4.22256151 -0.25 7.5 C-0.50265625 8.2734375 -0.7553125 9.046875 -1.015625 9.84375 C-2.0766312 12.16785882 -2.96729104 13.45710043 -5 15 C-8.6875 15.1875 -8.6875 15.1875 -12 15 C-11.2575 14.525625 -10.515 14.05125 -9.75 13.5625 C-6.57144105 10.60066098 -5.4950763 8.02670768 -3.9921875 4.0234375 C-3 2 -3 2 0 0 Z " fill="#7EA18F" transform="translate(43,71)"/>
<path d="M0 0 C0.33 0.99 0.66 1.98 1 3 C0.3503125 3.59167969 -0.299375 4.18335938 -0.96875 4.79296875 C-1.8040625 5.58316406 -2.639375 6.37335937 -3.5 7.1875 C-4.3353125 7.96480469 -5.170625 8.74210937 -6.03125 9.54296875 C-8.24092543 11.84399091 -8.24092543 11.84399091 -8.28125 14.80078125 C-8.1884375 15.52652344 -8.095625 16.25226562 -8 17 C-9.65 17 -11.3 17 -13 17 C-13 13 -13 13 -11.80664062 11.35253906 C-11.26201172 10.82885742 -10.71738281 10.30517578 -10.15625 9.765625 C-9.56972656 9.19199219 -8.98320313 8.61835937 -8.37890625 8.02734375 C-7.75886719 7.44082031 -7.13882813 6.85429688 -6.5 6.25 C-5.87996094 5.64800781 -5.25992188 5.04601563 -4.62109375 4.42578125 C-3.08955179 2.94136366 -1.54590226 1.46945655 0 0 Z " fill="#AE2E35" transform="translate(55,42)"/>
<path d="M0 0 C1.32 1.65 2.64 3.3 4 5 C1.69 6.98 -0.62 8.96 -3 11 C-3.66 10.01 -4.32 9.02 -5 8 C-5.99 8 -6.98 8 -8 8 C-5.36 5.36 -2.72 2.72 0 0 Z " fill="#E2D0AC" transform="translate(53,28)"/>
<path d="M0 0 C-0.3547813 2.57216446 -0.8042998 3.79677287 -2.625 5.6875 C-5.68895472 7.38073813 -8.55256493 7.55311027 -12 8 C-12.66 8.66 -13.32 9.32 -14 10 C-14 8.68 -14 7.36 -14 6 C-12.04414675 4.99515796 -10.08523763 3.99626195 -8.125 3 C-6.48917969 2.1646875 -6.48917969 2.1646875 -4.8203125 1.3125 C-2 0 -2 0 0 0 Z " fill="#2F2207" transform="translate(76,11)"/>
<path d="M0 0 C1.65 0 3.3 0 5 0 C4.63487253 2.7019433 4.30130763 4.58390852 2.6875 6.8125 C1 8 1 8 -3 8 C-2.5359375 7.13375 -2.5359375 7.13375 -2.0625 6.25 C-1.07416636 4.15705816 -0.4831387 2.25464725 0 0 Z " fill="#81A289" transform="translate(53,59)"/>
<path d="M0 0 C0.33 0.66 0.66 1.32 1 2 C-1.64 3.98 -4.28 5.96 -7 8 C-7 6.02 -7 4.04 -7 2 C-8.98 2.33 -10.96 2.66 -13 3 C-13.33 2.34 -13.66 1.68 -14 1 C-9.38 0.67 -4.76 0.34 0 0 Z " fill="#91432C" transform="translate(44,37)"/>
<path d="M0 0 C-0.99 1.485 -0.99 1.485 -2 3 C-2.99 3 -3.98 3 -5 3 C-5.33 4.32 -5.66 5.64 -6 7 C-6.66 7 -7.32 7 -8 7 C-8.33 7.66 -8.66 8.32 -9 9 C-9.75 6.75 -9.75 6.75 -10 4 C-7.19641352 -0.14930799 -4.8294638 -0.43904216 0 0 Z " fill="#A22D32" transform="translate(26,56)"/>
<path d="M0 0 C1.32 0 2.64 0 4 0 C4 2.31 4 4.62 4 7 C2.02 7.99 2.02 7.99 0 9 C-1.10844919 5.67465243 -0.84454356 3.37817425 0 0 Z " fill="#040200" transform="translate(33,39)"/>
<path d="M0 0 C6.75 -0.125 6.75 -0.125 9 1 C9 2.65 9 4.3 9 6 C7.35 6 5.7 6 4 6 C3.896875 5.38125 3.79375 4.7625 3.6875 4.125 C3.12474627 1.63473516 3.12474627 1.63473516 0 0 Z " fill="#869E80" transform="translate(86,9)"/>
<path d="M0 0 C2.64 0.33 5.28 0.66 8 1 C8.33 2.65 8.66 4.3 9 6 C7.35 6 5.7 6 4 6 C3.896875 5.38125 3.79375 4.7625 3.6875 4.125 C3.12474627 1.63473516 3.12474627 1.63473516 0 0 Z " fill="#A72F2E" transform="translate(81,9)"/>
<path d="M0 0 C1.32 0.33 2.64 0.66 4 1 C1.36 3.64 -1.28 6.28 -4 9 C-4.66 8.01 -5.32 7.02 -6 6 C-5.01 6 -4.02 6 -3 6 C-2.87625 5.38125 -2.7525 4.7625 -2.625 4.125 C-2 2 -2 2 0 0 Z " fill="#949B6B" transform="translate(67,34)"/>
<path d="M0 0 C1.32 0 2.64 0 4 0 C3.67 1.65 3.34 3.3 3 5 C1.35 5.33 -0.3 5.66 -2 6 C-1.125 1.125 -1.125 1.125 0 0 Z " fill="#7CA392" transform="translate(85,16)"/>
<path d="M0 0 C1.32 0 2.64 0 4 0 C3.67 1.65 3.34 3.3 3 5 C1.35 5.33 -0.3 5.66 -2 6 C-1.34 4.02 -0.68 2.04 0 0 Z " fill="#040200" transform="translate(75,16)"/>
<path d="M0 0 C1.9375 0.6875 1.9375 0.6875 4 2 C4.75 4.625 4.75 4.625 5 7 C2.37812506 5.95125002 1.20628639 5.35068687 -0.25 2.875 C-0.4975 2.25625 -0.745 1.6375 -1 1 C-0.67 0.67 -0.34 0.34 0 0 Z " fill="#DDC79F" transform="translate(18,64)"/>
<path d="M0 0 C0.66 1.32 1.32 2.64 2 4 C2.66 4 3.32 4 4 4 C3.67 5.32 3.34 6.64 3 8 C1.0625 7.25 1.0625 7.25 -1 6 C-1.75 3.875 -1.75 3.875 -2 2 C-1.34 2 -0.68 2 0 2 C0 1.34 0 0.68 0 0 Z " fill="#CF8879" transform="translate(30,52)"/>
<path d="M0 0 C1.32 1.32 2.64 2.64 4 4 C3.01 4.99 2.02 5.98 1 7 C-0.32 6.34 -1.64 5.68 -3 5 C-2.01 3.35 -1.02 1.7 0 0 Z " fill="#E7D8C1" transform="translate(41,41)"/>
<path d="M0 0 C0 0.99 0 1.98 0 3 C-0.66 3.66 -1.32 4.32 -2 5 C-1.67 5.66 -1.34 6.32 -1 7 C-1.66 7 -2.32 7 -3 7 C-3.33 7.66 -3.66 8.32 -4 9 C-4.66 9 -5.32 9 -6 9 C-6.99 9.495 -6.99 9.495 -8 10 C-6.34908222 5.70761377 -3.26245434 3.1206085 0 0 Z " fill="#D7C2A7" transform="translate(39,43)"/>
<path d="M0 0 C0.66 0.66 1.32 1.32 2 2 C1.34 2 0.68 2 0 2 C0 2.99 0 3.98 0 5 C-0.99 5 -1.98 5 -3 5 C-3.33 6.32 -3.66 7.64 -4 9 C-4.99 8.34 -5.98 7.68 -7 7 C-4.69 4.69 -2.38 2.38 0 0 Z " fill="#D9BF8B" transform="translate(61,20)"/>
<path d="M0 0 C1.32 1.65 2.64 3.3 4 5 C2.68 5.99 1.36 6.98 0 8 C-0.12375 7.360625 -0.2475 6.72125 -0.375 6.0625 C-0.684375 5.0415625 -0.684375 5.0415625 -1 4 C-1.66 3.67 -2.32 3.34 -3 3 C-2.01 2.01 -1.02 1.02 0 0 Z " fill="#D5C29A" transform="translate(53,28)"/>
<path d="M0 0 C1.65 1.65 3.3 3.3 5 5 C3.125 5.625 3.125 5.625 1 6 C0.34 5.34 -0.32 4.68 -1 4 C-0.625 1.875 -0.625 1.875 0 0 Z " fill="#E6D2B9" transform="translate(22,60)"/>
<path d="M0 0 C0 0.66 0 1.32 0 2 C-0.66 2 -1.32 2 -2 2 C-2 2.66 -2 3.32 -2 4 C-2.61875 4.12375 -3.2375 4.2475 -3.875 4.375 C-6.19120832 4.87197356 -6.19120832 4.87197356 -8 7 C-8 5.68 -8 4.36 -8 3 C-2.25 0 -2.25 0 0 0 Z " fill="#47330A" transform="translate(70,14)"/>
<path d="M0 0 C2.0625 0.4375 2.0625 0.4375 4 1 C3.34 1.66 2.68 2.32 2 3 C2 4.32 2 5.64 2 7 C1.34 7 0.68 7 0 7 C-0.38133299 5.0085944 -0.71325582 3.00720923 -1 1 C-0.67 0.67 -0.34 0.34 0 0 Z " fill="#979A68" transform="translate(50,52)"/>
<path d="M0 0 C0.66 0.33 1.32 0.66 2 1 C0.02 3.97 0.02 3.97 -2 7 C-2.99 6.34 -3.98 5.68 -5 5 C-3.35 3.35 -1.7 1.7 0 0 Z " fill="#030200" transform="translate(73,15)"/>
</svg>
